<?xml version="1.0" encoding="UTF-8" standalone="no"?>
<!-- Created with Inkscape (http://www.inkscape.org/) -->

<svg
   xmlns:dc="http://purl.org/dc/elements/1.1/"
   xmlns:cc="http://creativecommons.org/ns#"
   xmlns:rdf="http://www.w3.org/1999/02/22-rdf-syntax-ns#"
   xmlns:svg="http://www.w3.org/2000/svg"
   xmlns="http://www.w3.org/2000/svg"
   xmlns:sodipodi="http://sodipodi.sourceforge.net/DTD/sodipodi-0.dtd"
   xmlns:inkscape="http://www.inkscape.org/namespaces/inkscape"
   width="49.700153mm"
   height="21.065969mm"
   viewBox="0 0 176.10292 74.643198"
   id="svg2"
   version="1.1"
   inkscape:version="0.91 r13725"
   sodipodi:docname="logo.svg"
   inkscape:export-filename="/home/caleb/School/TAMU/CSCE 121/worldwatcher/logo.png"
   inkscape:export-xdpi="261.67001"
   inkscape:export-ydpi="261.67001">
  <defs
     id="defs4">
    <filter
       inkscape:collect="always"
       style="color-interpolation-filters:sRGB"
       id="filter6551"
       x="-0.01553635"
       width="1.0310727"
       y="-0.053875491"
       height="1.107751">
      <feGaussianBlur
         inkscape:collect="always"
         stdDeviation="0.73182066"
         id="feGaussianBlur6553" />
    </filter>
    <filter
       inkscape:collect="always"
       style="color-interpolation-filters:sRGB"
       id="filter6555"
       x="-0.093689851"
       width="1.1873797"
       y="-0.093689919"
       height="1.1873798">
      <feGaussianBlur
         inkscape:collect="always"
         stdDeviation="1.0811723"
         id="feGaussianBlur6557" />
    </filter>
  </defs>
  <sodipodi:namedview
     id="base"
     pagecolor="#ffffff"
     bordercolor="#666666"
     borderopacity="1.0"
     inkscape:pageopacity="0.0"
     inkscape:pageshadow="2"
     inkscape:zoom="5.6"
     inkscape:cx="85.467737"
     inkscape:cy="69.425757"
     inkscape:document-units="px"
     inkscape:current-layer="layer1"
     showgrid="false"
     inkscape:object-nodes="false"
     inkscape:snap-midpoints="false"
     inkscape:window-width="1912"
     inkscape:window-height="1001"
     inkscape:window-x="0"
     inkscape:window-y="45"
     inkscape:window-maximized="0"
     fit-margin-top="0"
     fit-margin-left="1.1"
     fit-margin-right="0"
     fit-margin-bottom="0"
     inkscape:snap-bbox="true"
     inkscape:bbox-paths="true"
     inkscape:snap-bbox-edge-midpoints="false"
     inkscape:object-paths="true"
     inkscape:snap-bbox-midpoints="true"
     inkscape:snap-global="false" />
  <metadata
     id="metadata7">
    <rdf:RDF>
      <cc:Work
         rdf:about="">
        <dc:format>image/svg+xml</dc:format>
        <dc:type
           rdf:resource="http://purl.org/dc/dcmitype/StillImage" />
        <dc:title></dc:title>
      </cc:Work>
    </rdf:RDF>
  </metadata>
  <g
     inkscape:label="Layer 1"
     inkscape:groupmode="layer"
     id="layer1"
     transform="translate(-82.848228,-242.18542)">
    <path
       id="path6521"
       style="opacity:0.6;fill:none;fill-rule:evenodd;stroke:#000000;stroke-width:2;stroke-linecap:butt;stroke-linejoin:round;stroke-miterlimit:4;stroke-dasharray:none;stroke-opacity:1;filter:url(#filter6555)"
       d="m 126.80174,258.00408 c 9.71918,9.16617 10.08916,18.39434 0,27.69576 m 0,0 c -9.71921,-9.16617 -10.08919,-18.39435 0,-27.69576 m -10.72324,5.34512 c 6.4161,4.57734 15.03036,4.57734 21.44647,0 m -10.65222,22.35064 a 13.84788,13.84788 0 1 0 -0.14204,0 z m -0.071,0 0,-27.69576 m -13.84788,13.84788 27.69576,0 m -3.12465,8.52178 a 18.463839,18.463839 0 0 0 -21.44647,0 m 0,-17.04356"
       inkscape:connector-curvature="0"
       inkscape:transform-center-x="-3.8550963"
       inkscape:transform-center-y="-5.5892351" />
    <g
       transform="matrix(1.4773733,0,0,1.4773733,-147.08922,-138.26242)"
       style="font-style:normal;font-variant:normal;font-weight:normal;font-stretch:normal;font-size:40px;line-height:125%;font-family:'Anonymous Pro';-inkscape-font-specification:'Anonymous Pro';letter-spacing:0px;word-spacing:0px;opacity:0.6;fill:#000000;fill-opacity:1;stroke:none;stroke-width:1px;stroke-linecap:butt;stroke-linejoin:miter;stroke-opacity:1;filter:url(#filter6551)"
       id="flowRoot6469">
      <path
         id="path6478"
         style="font-style:normal;font-variant:normal;font-weight:normal;font-stretch:normal;font-size:50px;font-family:'Anonymous Pro';-inkscape-font-specification:'Anonymous Pro';fill:#000000;fill-opacity:1"
         d="m 272.98535,277.72729 q 0,1.31836 -0.24414,2.36817 -0.21973,1.0498 -0.83008,2.12402 -0.58593,1.07422 -1.5625,2.27051 -0.97656,1.19629 -2.46582,2.73438 l -11.1084,11.25488 13.45215,0 0,-6.25 2.85645,0 0,9.10644 -20.70313,0 0,-2.9541 12.40235,-12.59765 q 0.95214,-0.95215 1.80664,-1.9043 0.8789,-0.95215 1.5625,-1.92871 0.68359,-0.97656 1.07422,-2.02637 0.39062,-1.0498 0.39062,-2.19727 0,-2.92968 -1.95312,-4.41894 -1.92872,-1.51367 -4.78516,-1.51367 -4.00391,0 -6.05469,2.22168 -2.05078,2.22168 -2.05078,6.4209 l -3.10059,0 q 0,-5.39551 2.88086,-8.44727 2.88086,-3.05176 8.3252,-3.05176 2.05078,0 3.85742,0.61035 1.83106,0.58594 3.22266,1.70899 1.41601,1.12305 2.22168,2.75879 0.80566,1.61133 0.80566,3.71093 z m -25.51128,23.60573 -1.55648,0 -3.40815,-5.00042 -1.81589,0 0,5.00042 -1.22551,0 0,-11.67359 3.84647,0 q 1.92324,0 2.97878,0.84085 1.05554,0.83192 1.05554,2.49574 0,0.73351 -0.25941,1.3239 -0.25942,0.58144 -0.70668,0.99292 -0.44726,0.41149 -1.07343,0.66196 -0.61722,0.25046 -1.35073,0.30413 l 3.51549,5.05409 z m -1.39546,-8.337 q 0,-1.18973 -0.74246,-1.73539 -0.73352,-0.5546 -2.02164,-0.5546 l -2.62096,0 0,4.57998 2.62096,0 q 1.28812,0 2.02164,-0.53672 0.74246,-0.54566 0.74246,-1.75327 z m -12.22224,8.337 -7.46036,0 0,-11.67359 7.46036,0 0,1.0466 -6.23486,0 0,4.17744 4.59787,0 0,1.0466 -4.59787,0 0,4.35635 6.23486,0 0,1.0466 z m -13.07203,0 -1.23445,0 0,-5.40295 -5.00041,0 0,5.40295 -1.22551,0 0,-11.67359 1.22551,0 0,5.22404 5.00041,0 0,-5.22404 1.23445,0 0,11.67359 z m -12.56216,-3.05929 q -0.45621,1.50281 -1.49386,2.38839 -1.03765,0.87664 -2.61202,0.87664 -1.2255,0 -2.07531,-0.50094 -0.8498,-0.50988 -1.39546,-1.34179 -0.53672,-0.83191 -0.77824,-1.92323 -0.23258,-1.09133 -0.23258,-2.26316 0,-1.17183 0.23258,-2.26316 0.24152,-1.09132 0.77824,-1.93217 0.54566,-0.84086 1.39546,-1.3418 0.84981,-0.50988 2.07531,-0.50988 1.08238,0 1.85167,0.38465 0.7693,0.38465 1.13605,1.17183 l 0,-1.35968 1.0466,0 0,3.82858 -1.0466,0 q 0,-0.61723 -0.24152,-1.16289 -0.23258,-0.55461 -0.63511,-0.95714 -0.40254,-0.40254 -0.95715,-0.62617 -0.54566,-0.23258 -1.15394,-0.23258 -0.9482,0 -1.57437,0.44726 -0.61722,0.44727 -0.99293,1.17184 -0.3757,0.72456 -0.53671,1.61015 -0.15207,0.88558 -0.15207,1.77116 0,0.87664 0.15207,1.77117 0.16101,0.88558 0.53671,1.6012 0.37571,0.70668 0.99293,1.16288 0.62617,0.44727 1.57437,0.44727 2.18264,0 3.04139,-2.63885 l 1.06449,0.42042 z m -13.1436,-4.66943 -1.04659,0 0,-2.89827 -2.50468,0 0,9.58039 1.87851,0 0,1.0466 -5.00041,0 0,-1.0466 1.88745,0 0,-9.58039 -2.50468,0 0,2.89827 -1.0466,0 0,-3.94487 8.337,0 0,3.94487 z m -12.50848,7.72872 -1.31495,0 -1.10027,-3.33659 -4.61577,0 -1.08238,3.33659 -1.31495,0 3.88225,-11.67359 1.66382,0 3.88225,11.67359 z m -2.76409,-4.41897 -1.95902,-6.02018 -1.95901,6.02018 3.91803,0 z m -10.30794,-7.25462 -2.10214,11.67359 -1.44914,0 -1.18972,-5.69814 -1.20761,5.69814 -1.43125,0 -2.08425,-11.67359 1.29707,0 1.64593,9.60723 1.17183,-6.27064 1.20761,0 1.18078,6.27064 1.64593,-9.60723 1.31496,0 z m 78.37655,-12.06262 q 0,1.73186 -0.37017,3.30506 -0.35695,1.55999 -1.16339,2.74981 -0.79321,1.17661 -2.06235,1.87728 -1.25593,0.70068 -3.04066,0.70068 l -5.60539,0 0,-17.25243 5.60539,0 q 1.75829,0 3.01421,0.71388 1.26915,0.70068 2.06237,1.87728 0.80643,1.1766 1.1766,2.7366 0.38339,1.55999 0.38339,3.29184 z m -2.7366,0 q 0,-2.98778 -1.01796,-4.56099 -1.01795,-1.58643 -2.88201,-1.58643 l -2.8688,0 0,12.32128 2.8688,0 q 1.86406,0 2.88201,-1.61288 1.01796,-1.61286 1.01796,-4.56098 z m -16.67074,8.63283 -11.02569,0 0,-17.25243 2.73659,0 0,14.79346 8.2891,0 0,2.45897 z m -17.30531,0 -3.4637,0 -4.46845,-6.9803 -1.2427,0 0,6.9803 -2.7366,0 0,-17.25243 5.68471,0 q 2.84236,0 4.41556,1.3088 1.57321,1.29558 1.57321,3.84709 0,1.13694 -0.35694,2.00948 -0.34373,0.85932 -0.99152,1.48067 -0.63457,0.62135 -1.49389,0.99152 -0.8461,0.35694 -1.83761,0.48914 l 4.91793,7.12573 z m -2.97456,-12.1362 q 0,-1.32202 -0.87253,-1.98304 -0.85932,-0.66101 -2.37965,-0.66101 l -2.94811,0 0,5.32776 2.94811,0 q 1.52033,0 2.37965,-0.66101 0.87253,-0.66101 0.87253,-2.0227 z m -34.16642,-5.11623 -2.67049,17.25243 -2.81592,0 -1.52033,-7.44301 -1.49388,7.44301 -2.81592,0 -2.67049,-17.25243 2.84236,0 1.58643,11.6206 1.25592,-6.68945 2.61761,0 1.21626,6.68945 1.62609,-11.6206 2.84236,0 z"
         inkscape:connector-curvature="0" />
    </g>
    <flowRoot
       xml:space="preserve"
       id="flowRoot6255"
       style="font-style:normal;font-variant:normal;font-weight:bold;font-stretch:normal;font-size:40px;line-height:125%;font-family:'Anonymous Pro';-inkscape-font-specification:'Anonymous Pro Bold';letter-spacing:5px;word-spacing:0px;fill:#000000;fill-opacity:1;stroke:none;stroke-width:1px;stroke-linecap:butt;stroke-linejoin:miter;stroke-opacity:1"
       transform="translate(-0.32142837,-0.5086583)"><flowRegion
         id="flowRegion6257"><rect
           id="rect6259"
           width="568.71588"
           height="194.95944"
           x="88.893425"
           y="242.21986"
           style="font-style:normal;font-variant:normal;font-weight:bold;font-stretch:normal;font-family:'Anonymous Pro';-inkscape-font-specification:'Anonymous Pro Bold';letter-spacing:5px" /></flowRegion><flowPara
         id="flowPara6261"><flowSpan
   style="letter-spacing:6px"
   id="flowSpan6263">W </flowSpan>RLD</flowPara></flowRoot>    <flowRoot
       xml:space="preserve"
       id="flowRoot6265"
       style="font-style:normal;font-variant:normal;font-weight:normal;font-stretch:normal;font-size:40px;line-height:125%;font-family:'Anonymous Pro';-inkscape-font-specification:'Anonymous Pro';letter-spacing:0px;word-spacing:0px;fill:#000000;fill-opacity:1;stroke:none;stroke-width:1px;stroke-linecap:butt;stroke-linejoin:miter;stroke-opacity:1"
       transform="matrix(0.9021793,0,0,0.9021793,63.567728,-170.93329)"><flowRegion
         id="flowRegion6267"><rect
           id="rect6269"
           width="339.41125"
           height="94.954338"
           x="27.274118"
           y="496.77829"
           style="font-style:normal;font-variant:normal;font-weight:normal;font-stretch:normal;font-family:'Anonymous Pro';-inkscape-font-specification:'Anonymous Pro'" /></flowRegion><flowPara
         id="flowPara6271"
         style="font-style:normal;font-variant:normal;font-weight:normal;font-stretch:normal;font-size:30px;font-family:'Anonymous Pro';-inkscape-font-specification:'Anonymous Pro';letter-spacing:5px">WATCHER</flowPara></flowRoot>    <flowRoot
       xml:space="preserve"
       id="flowRoot6275"
       style="font-style:normal;font-variant:normal;font-weight:normal;font-stretch:normal;font-size:40px;line-height:125%;font-family:'Anonymous Pro';-inkscape-font-specification:'Anonymous Pro';letter-spacing:0px;word-spacing:0px;fill:#000000;fill-opacity:1;stroke:none;stroke-width:1px;stroke-linecap:butt;stroke-linejoin:miter;stroke-opacity:1"
       transform="matrix(1.4773733,0,0,1.4773733,-149.08922,-140.26242)"><flowRegion
         id="flowRegion6277"><rect
           id="rect6279"
           width="86.428574"
           height="62.857143"
           x="251.42857"
           y="250.21935"
           style="font-style:normal;font-variant:normal;font-weight:normal;font-stretch:normal;font-family:'Anonymous Pro';-inkscape-font-specification:'Anonymous Pro';fill:#000000;fill-opacity:1" /></flowRegion><flowPara
         id="flowPara6281"
         style="font-style:normal;font-variant:normal;font-weight:normal;font-stretch:normal;font-size:50px;font-family:'Anonymous Pro';-inkscape-font-specification:'Anonymous Pro';fill:#000000;fill-opacity:1">2</flowPara></flowRoot>    <path
       inkscape:transform-center-y="-5.5892351"
       inkscape:transform-center-x="-3.8550963"
       inkscape:connector-curvature="0"
       d="m 124.80174,256.00408 c 9.71918,9.16617 10.08916,18.39434 0,27.69576 m 0,0 c -9.71921,-9.16617 -10.08919,-18.39435 0,-27.69576 m -10.72324,5.34512 c 6.4161,4.57734 15.03036,4.57734 21.44647,0 m -10.65222,22.35064 a 13.84788,13.84788 0 1 0 -0.14204,0 z m -0.071,0 0,-27.69576 m -13.84788,13.84788 27.69576,0 m -3.12465,8.52178 a 18.463839,18.463839 0 0 0 -21.44647,0 m 0,-17.04356"
       style="fill:none;fill-rule:evenodd;stroke:#000000;stroke-width:2;stroke-linecap:butt;stroke-linejoin:round;stroke-miterlimit:4;stroke-dasharray:none;stroke-opacity:1"
       id="path6149" />
    <flowRoot
       style="font-style:normal;font-variant:normal;font-weight:normal;font-stretch:normal;font-size:45.86317062px;line-height:125%;font-family:'Anonymous Pro';-inkscape-font-specification:'Anonymous Pro';letter-spacing:0px;word-spacing:0px;fill:#000000;fill-opacity:0.78431373;stroke:none;stroke-width:1px;stroke-linecap:butt;stroke-linejoin:miter;stroke-opacity:1"
       id="flowRoot4147"
       xml:space="preserve"
       transform="matrix(0.93605329,0,0,0.93605329,8.3644828,16.323887)"><flowRegion
         id="flowRegion4149"><rect
           style="font-style:normal;font-variant:normal;font-weight:normal;font-stretch:normal;font-family:'Anonymous Pro';-inkscape-font-specification:'Anonymous Pro';fill:#000000;fill-opacity:0.78431373"
           y="236.53348"
           x="105.74716"
           height="108.87267"
           width="389.1619"
           id="rect4151" /></flowRegion><flowPara
         style="font-style:italic;font-variant:normal;font-weight:normal;font-stretch:normal;font-size:12.70899487px;font-family:'Anonymous Pro';-inkscape-font-specification:'Anonymous Pro';letter-spacing:0px;fill:#000000;fill-opacity:0.78431373"
         id="flowPara4153">Studio L50 Presents:</flowPara></flowRoot>    <flowRoot
       xml:space="preserve"
       id="flowRoot4174"
       style="font-style:normal;font-variant:normal;font-weight:normal;font-stretch:normal;font-size:12.5px;line-height:125%;font-family:'Anonymous Pro';-inkscape-font-specification:'Anonymous Pro';letter-spacing:0px;word-spacing:0px;fill:#000000;fill-opacity:0.78431373;stroke:none;stroke-width:1px;stroke-linecap:butt;stroke-linejoin:miter;stroke-opacity:1"
       transform="matrix(0.70889831,0,0,0.70889831,10.996348,147.83829)"><flowRegion
         id="flowRegion4176"><rect
           id="rect4178"
           width="306.20981"
           height="85.66584"
           x="107.81673"
           y="225.46408"
           style="font-style:normal;font-variant:normal;font-weight:normal;font-stretch:normal;font-size:12.5px;font-family:'Anonymous Pro';-inkscape-font-specification:'Anonymous Pro';fill:#000000;fill-opacity:0.78431373" /></flowRegion><flowPara
         style="font-style:normal;font-variant:normal;font-weight:normal;font-stretch:normal;font-size:12.5px;font-family:'Anonymous Pro';-inkscape-font-specification:'Anonymous Pro';letter-spacing:0px;fill:#000000;fill-opacity:0.78431373"
         id="flowPara4188">Caleb Johnson</flowPara></flowRoot>    <text
       xml:space="preserve"
       style="font-style:normal;font-variant:normal;font-weight:normal;font-stretch:normal;font-size:8.86122894px;line-height:125%;font-family:'Anonymous Pro';-inkscape-font-specification:'Anonymous Pro';letter-spacing:0px;word-spacing:0px;fill:#000000;fill-opacity:0.78431373;stroke:none;stroke-width:1px;stroke-linecap:butt;stroke-linejoin:miter;stroke-opacity:1"
       x="159.0732"
       y="316.7291"
       id="text4192"
       sodipodi:linespacing="125%"><tspan
         sodipodi:role="line"
         id="tspan4194"
         x="159.0732"
         y="316.7291">Jae Jun</tspan></text>
    <text
       xml:space="preserve"
       style="font-style:normal;font-variant:normal;font-weight:normal;font-stretch:normal;font-size:8.86122894px;line-height:125%;font-family:'Anonymous Pro';-inkscape-font-specification:'Anonymous Pro';letter-spacing:0px;word-spacing:0px;fill:#000000;fill-opacity:0.78431373;stroke:none;stroke-width:1px;stroke-linecap:butt;stroke-linejoin:miter;stroke-opacity:1"
       x="201.88991"
       y="316.7291"
       id="text4198"
       sodipodi:linespacing="125%"><tspan
         sodipodi:role="line"
         id="tspan4200"
         x="201.88991"
         y="316.7291">Alex Kaiser</tspan></text>
    <circle
       style="opacity:1;fill:#000000;fill-opacity:0.78431373;fill-rule:nonzero;stroke:none;stroke-width:1;stroke-linecap:butt;stroke-linejoin:round;stroke-miterlimit:4;stroke-dasharray:none;stroke-dashoffset:84.0375061;stroke-opacity:1"
       id="path4202"
       cx="154.23206"
       cy="314.58701"
       r="1.4285715" />
    <circle
       r="1.4285715"
       cy="314.58701"
       cx="196.80214"
       id="circle4204"
       style="opacity:1;fill:#000000;fill-opacity:0.78431373;fill-rule:nonzero;stroke:none;stroke-width:1;stroke-linecap:butt;stroke-linejoin:round;stroke-miterlimit:4;stroke-dasharray:none;stroke-dashoffset:84.0375061;stroke-opacity:1" />
  </g>
</svg>
